<?xml version="1.0" standalone="no"?>
<!DOCTYPE svg PUBLIC "-//W3C//DTD SVG 20010904//EN"
 "http://www.w3.org/TR/2001/REC-SVG-20010904/DTD/svg10.dtd">
<svg version="1.0" xmlns="http://www.w3.org/2000/svg"
 width="32.000000pt" height="32.000000pt" viewBox="0 0 32.000000 32.000000"
 preserveAspectRatio="xMidYMid meet">

<g transform="translate(0.000000,32.000000) scale(0.100000,-0.100000)"
fill="#000000" stroke="none">
<path d="M45 200 c-3 -5 -1 -19 5 -30 8 -15 8 -18 -3 -14 -8 3 -17 -1 -20 -9
-4 -11 5 -14 39 -14 43 0 59 12 30 23 -8 3 -12 13 -9 25 3 10 9 17 13 14 5 -3
11 -1 15 5 4 6 -8 10 -29 10 -19 0 -38 -4 -41 -10z m35 -10 c0 -5 -4 -10 -10
-10 -5 0 -10 5 -10 10 0 6 5 10 10 10 6 0 10 -4 10 -10z"/>
<path d="M138 158 c5 -21 6 -21 13 -2 7 19 8 19 9 -1 1 -13 3 -15 7 -6 5 11 7
11 14 0 7 -11 9 -11 9 2 0 9 -10 19 -22 23 -35 9 -37 8 -30 -16z"/>
<path d="M252 160 c0 -14 2 -19 5 -12 2 6 2 18 0 25 -3 6 -5 1 -5 -13z"/>
<path d="M201 167 c2 -2 12 -9 22 -16 14 -11 17 -11 17 1 0 7 -10 14 -21 15
-12 1 -20 1 -18 0z"/>
<path d="M270 161 c0 -6 4 -13 10 -16 6 -3 7 1 4 9 -7 18 -14 21 -14 7z"/>
</g>
</svg>
